<svg xmlns="http://www.w3.org/2000/svg" width="805.811" height="105.118" viewBox="0 0 805.811 105.118">
  <g id="Group_111" data-name="Group 111" transform="translate(-43.566 -205.873)">
    <path id="Path_407" data-name="Path 407" d="M125.81,287.086l10.409-77.094H113.911l-14.3,29.283a253.153,253.153,0,0,0-10.409,24.591h-.459c-.113-8.579-.912-17.384-1.371-24.591l-2.4-29.283H62.9L43.566,287.086h15.1l7.666-31.8c1.944-8.352,4.233-19.9,6.4-30.082h.232c.453,10.3,1.026,20.931,1.711,29.4l2.748,31.226H90.238l15.786-31.572c4.227-8.465,9.032-19.1,13.265-29.051h.346c-2.176,11.094-3.887,21.73-5.15,30.082l-4.686,31.8ZM421.125,247.6c-.022.3,0,.156.027.3l.016.162v.011a.955.955,0,0,0,.14.362l.005.011.022.032a1.15,1.15,0,0,1,.135.318l-.022.27c-.005.076,0-.005-.016.032l-.038.076-.005.011-.383.7c-.032.054-.027.027-.054.092l-.232.5v.011c-.016.059-.022-.016-.027.059-.016.162-.059.275.038.4l.043.081c.043.07.049.043.135.086l.1.043a2.625,2.625,0,0,0,.588.059c.059,0,.14-.016.211-.011a2.456,2.456,0,0,0-.059.6.339.339,0,0,1,0,.076c-.011.194-.005.162.167.216.07.022.043.038.162.043l.194.016c-.011.086-.022.043-.065.113l-.033.059a.412.412,0,0,0-.016.243l.027.065a.2.2,0,0,0,.022.027l.027.027.329.248.065.032c.022.022.049.032.049.065l-.043.119-.005.011-.032.194c-.016.1-.038.022-.054.232-.005.07.027.005.027.113a.59.59,0,0,0,.054.27c.07.124.032.135.146.275a1.4,1.4,0,0,0,.4.356l.2.1a.856.856,0,0,0,.275.065c.119.016.054.038.119.043l.394.032c.065,0,.005-.027.108-.027a.672.672,0,0,1,.146.011,1.389,1.389,0,0,0,.275-.049l.713-.124.011-.005.308-.07.049-.022.362-.1.027-.011h.011l.016-.005.875-.221c.092-.011.14-.043.227-.054l.059-.005.194-.027a2.838,2.838,0,0,1,.88.043,3.38,3.38,0,0,1,.524.157l.184.076.011.005.518.254a.277.277,0,0,1,.113.054l.011.005.011.011c.081.065.173.1.265.157l.216.108.011.011.022.016.011.005,1.037.545.011.005.426.189c.07.032.043.016.108.022.032,0,.076.043.157.054l.184.049c.076.022.005.022.1.038a.893.893,0,0,1,.119.011.707.707,0,0,0,.216.049c.167.011.335.027.5.038a1.967,1.967,0,0,0,.356.022l.076-.016c.049-.005.076,0,.119-.005.081-.005.022-.011.1-.022.113-.011.113.016.216-.022l.011-.005.081-.022a.676.676,0,0,0,.108-.011c.119-.027.313-.119.437-.14.065-.016.092-.054.157-.081a1.841,1.841,0,0,0,.254-.135l.238-.13.07-.054c.049-.043.151-.1.286-.211a4.254,4.254,0,0,0,.464-.41,2.763,2.763,0,0,1,.335-.329l.005-.011.011-.011.016-.016.011-.011.022-.032.092-.108.022-.032.032-.038.367-.389.005-.011.016-.022c.1-.113.092-.135.108-.286-.232-.016-.2.049-.383.065l-.545.049c-.119-.005-.059.032-.124.027l-1.069-.081c-.076-.005-.054-.027-.124-.043-.054-.011-.108-.005-.157-.016l-.545-.135-.054-.016-.432-.13-.054-.022-.016-.005-.011-.005-.464-.151-.054-.016-.1-.032-.016-.005-.653-.221-.038-.016-.065-.011-.049-.022-.27-.07-.065-.032c-.092-.027-.184-.027-.335-.076l-.081-.016c-.151-.011-.162-.043-.281-.054-.054-.005-.113-.005-.162-.011-.086-.016-.065-.043-.14-.049l-1.01-.027c-.1.022-.216,0-.3.022a3.728,3.728,0,0,0-.421.059l-.464.119-.016.005a.181.181,0,0,1-.032.016l-.048.022-.065.022-.362.119c-.076.022-.157.065-.238.1a.832.832,0,0,1-.124.032l-.238.092c-.146.065-.318.092-.459.162l-.194.065a1.1,1.1,0,0,1-.227.07,3.234,3.234,0,0,1-.4.059,1.122,1.122,0,0,1-.373.011l-.14-.054a.55.55,0,0,1-.292-.178l-.043-.049a1.009,1.009,0,0,1-.13-.221,3.672,3.672,0,0,1-.119-.416c-.016-.146-.054-.135-.167-.189-.054-.022-.07-.049-.124-.076l-.1-.065-.011-.005-.021-.016-.033-.022a.486.486,0,0,1-.162-.243c-.016-.049-.016.038-.011-.043a2.817,2.817,0,0,1,.124-.275l-.049-.076a1.533,1.533,0,0,1-.416-.005c-.108,0-.119.011-.113-.108a.475.475,0,0,0-.054-.588l-.049-.054-.016-.016a2.374,2.374,0,0,0-.432-.264c-.076-.043-.135-.043-.189-.108l-.059-.07.1-.238.027-.1.038-.07.038-.076.243-.529a.217.217,0,0,0,.038-.13.571.571,0,0,1,.054-.194l.043-.572c0-.049-.032-.076-.027-.162a3.638,3.638,0,0,0,.038-.529c-.016-.076-.032-.011-.027-.081l.038-.534c.005-.065.027-.059.043-.108s.005-.108.016-.157c.016-.086.011-.027.038-.108.016-.038.022-.1.038-.135.027-.059.027-.022.059-.086.065-.119.022-.108.146-.254l.043-.049.13-.173a1.189,1.189,0,0,1,.162-.167l.939-.75c.092-.054.238-.178.367-.254l.173-.124a1.515,1.515,0,0,1,.184-.14.282.282,0,0,0,.092-.065,2.139,2.139,0,0,0,.184-.119l.432-.329a1.355,1.355,0,0,0,.259-.205l.221-.167c.113-.1.108-.059.313-.243.113-.1.13-.065.254-.189.092-.081.184-.119.27-.189l.173-.151a.2.2,0,0,1,.081-.054l.394-.3.022-.016.113-.1a3.057,3.057,0,0,0,.264-.194c.065-.059.022-.016.086-.049l.518-.41a3.267,3.267,0,0,0,.275-.205l.038-.032.281-.216c.054-.043.076-.027.124-.07.032-.027.038-.049.081-.081l.259-.184c.151-.124.372-.259.454-.329a2.16,2.16,0,0,1,.264-.194l.356-.27.1-.054a1.88,1.88,0,0,1,.157-.146l.173-.13.086-.07.092-.076.076-.065.011-.005.135-.119a2.882,2.882,0,0,0,.356-.319l.221-.248a.856.856,0,0,0,.14-.167l.135-.167c.043-.076.076-.14.124-.211l.113-.232.005-.016.016-.038a1.225,1.225,0,0,0,.135-.41c.011-.124.032-.173.038-.3.011-.108,0-.162.005-.27.005-.092,0-.054-.016-.119a1.33,1.33,0,0,1-.005-.146l-.016-.049-.07-.281-.011-.054-.022-.065-.113-.275-.005-.011-.011-.038-.162-.292-.027-.049c-.027-.043-.027-.054-.1-.059a1.1,1.1,0,0,1-.265.286l-.1.108c-.167.162-.416.367-.588.551l-.4.367a6.465,6.465,0,0,1-.675.556l-.756.632-.032.022-.426.335-.1.086-.324.243c-.032.027-.059.054-.1.081-.119.065-.227.178-.346.237l-.292.221-.032.027-.534.4-.011.005-.216.162c-.1.086-.157.1-.227.162l-.1.081-.346.243c-.027.022-.049.054-.092.086l-.054.032H427.6l-.3.216-.005.005L427,241a.426.426,0,0,1-.124.076.69.69,0,0,0-.1.081c-.1.086-.319.205-.4.286l-1.015.761c-.059.038-.049.054-.1.1l-.178.1c-.059.048-.119.07-.167.119a1.992,1.992,0,0,1-.216.157c-.059.049-.054.022-.113.065l-.345.232-.049.043-.4.264a.647.647,0,0,1-.113.07l-.14.086a.158.158,0,0,0-.032.022l-1.085.907-.038.054c-.108.146-.238.286-.335.448l-.119.194-.032.054-.011.043-.005.016-.13.3-.005.016-.124.324-.032.054-.065.232a3.567,3.567,0,0,1-.124.383,2.64,2.64,0,0,0-.081.329.953.953,0,0,0-.076.313l-.049.34c-.016.13-.059.059-.065.135Zm386.958,39.486,4.692-24.823c2.289-12.352,8.578-19.1,13.956-19.1,4.114,0,5.491,2.748,5.491,6.635a38.161,38.161,0,0,1-.572,6.289l-5.836,31h16.471L848.46,254.6a69.813,69.813,0,0,0,.918-9.5c0-9.6-5.15-15.208-14.3-15.208-7.434,0-14.409,3.2-19.673,10.522h-.227l1.145-9.264H801.68c-.686,4.918-1.6,11.094-2.975,18.183l-7.089,37.748Zm-20.067,0a135.489,135.489,0,0,1,2.17-25.163l5.949-29.283a66.692,66.692,0,0,0-18.528-2.743c-27.566,0-40.031,20.132-40.031,39,0,11.667,6.862,19.446,16.925,19.446,6.522,0,13.61-3.088,18.76-12.352h.34c-.34,4-.686,7.774-.8,11.094Zm-13.038-31.34c-2.521,13.724-8.579,19.327-13.5,19.327-4.578,0-6.754-3.774-6.754-9.264,0-10.409,7.78-23.447,18.42-23.447a25.189,25.189,0,0,1,4.459.459l-2.629,12.924Zm-44.091,31.34,10.635-55.931H725.05l-10.635,55.931Zm4.459-62.911c5.264,0,9.723-3.428,9.723-9.264,0-4.918-3.434-8.12-8.233-8.12a9.366,9.366,0,0,0-9.5,9.378,7.625,7.625,0,0,0,8.006,8.006ZM714.021,272.79a28.236,28.236,0,0,1-11.094,2.284c-6.176,0-10.981-3.887-10.981-11.553,0-10.522,7.2-20.472,18.987-20.472a18.954,18.954,0,0,1,7.547,1.371l4.006-12.579A30.59,30.59,0,0,0,711.16,229.9c-21.276,0-36.484,15.554-36.484,35.453,0,14.528,9.718,22.88,23.56,22.88,6.635,0,12.352-1.145,15.9-2.861l-.113-12.579Zm-46.494,14.3,10.635-55.931H661.691l-10.635,55.931Zm4.459-62.911c5.264,0,9.723-3.428,9.723-9.264,0-4.918-3.428-8.12-8.233-8.12a9.372,9.372,0,0,0-9.5,9.378,7.625,7.625,0,0,0,8.006,8.006Zm-76.343,83.27c3.774,2.176,10.754,3.547,18.188,3.547s15.554-1.49,21.617-6.289c6.748-5.377,9.836-14.528,11.78-24.823l8.465-46.094a52.243,52.243,0,0,0-20.7-3.887c-24.364,0-37.516,18.3-37.516,36.83.113,10.862,6.862,19.9,17.956,19.9,6.635,0,11.667-2.629,16.018-8.233h.227l-.918,4.686c-2.289,11.213-8.465,14.873-16.7,14.873-4.692,0-11.553-1.258-14.641-3.088l-3.774,12.579Zm39.346-48.955c-1.711,9.5-7.207,15.446-12.579,15.446-5.037,0-7.553-4.119-7.553-9.728,0-10.636,7.094-21.73,17.044-21.73a16.352,16.352,0,0,1,5.949,1.031l-2.861,14.981Zm-42.261,28.6a135.5,135.5,0,0,1,2.176-25.163l5.949-29.283a66.756,66.756,0,0,0-18.528-2.743c-27.566,0-40.037,20.132-40.037,39,0,11.667,6.867,19.446,16.93,19.446,6.516,0,13.61-3.088,18.755-12.352h.346c-.346,4-.686,7.774-.8,11.094Zm-13.038-31.34c-2.516,13.724-8.579,19.327-13.5,19.327-4.573,0-6.748-3.774-6.748-9.264,0-10.409,7.78-23.447,18.415-23.447a25.2,25.2,0,0,1,4.465.459l-2.635,12.924Zm-43.06,31.34,10.409-77.094h-22.3l-14.3,29.283a253.166,253.166,0,0,0-10.409,24.591h-.453c-.113-8.579-.918-17.384-1.371-24.591l-2.4-29.283H473.724l-19.333,77.094h15.095l7.666-31.8c1.944-8.352,4.233-19.9,6.408-30.082h.227c.459,10.3,1.031,20.931,1.717,29.4l2.743,31.226h12.811l15.786-31.572c4.233-8.465,9.037-19.1,13.27-29.051h.34c-2.17,11.094-3.887,21.73-5.145,30.082l-4.691,31.8Zm-105.28-15.1a35.157,35.157,0,0,1-15.673,3.547c-4.8,0-8.578-1.485-10.754-4.346a11.08,11.08,0,0,1-1.711-5.717q3.482.089,6.694-.016l.1-.346c.038-.13.162-.313.211-.453.027-.07-.005-.016.038-.076l.372-.518.049-.059c.049-.059-.005-.005.054-.049l.41-.453c.065-.059.043-.07.108-.13l.437-.367.027-.022.788-.5c.076-.054.049-.005.13-.086s.113-.059.238-.184c.049-.049.049-.07.1-.119a.653.653,0,0,0,.1-.108c.054-.065.038-.07.1-.14l.043-.065c.016-.049,0-.027.027-.081l.059-.14a.669.669,0,0,0,.038-.216l.022-.281a1.224,1.224,0,0,0-.13-.389l-.011-.043a.5.5,0,0,0-.1-.119l-.011-.027c-.065-.1-.157-.162-.227-.254l-.335-.275-.011-.011-.335-.194a.9.9,0,0,1-.135-.081c-.1-.081-.254-.108-.367-.189l-.07-.038-.416-.194-.016-.005-.022-.011a.322.322,0,0,0-.086-.043c-.205-.076-.589-.286-.815-.4-.054-.032-.092-.059-.135-.086a3.152,3.152,0,0,1-.3-.151,1.488,1.488,0,0,0-.292-.151l-.146-.076c-.086-.054-.205-.092-.292-.151l-.659-.324c-.1-.032-.178-.108-.27-.146l-.016-.005-.281-.14-.011-.011-.076-.032-1.593-.75-.011-.005-.173-.07c-.14-.092-.086-.032-.194-.086l-.043-.022a1.892,1.892,0,0,1-.259-.113l-.691-.275a.264.264,0,0,0-.038-.016l-.178-.059-.043-.016-.556-.221c-.049-.027-.011-.038-.07-.043l-.362-.124c-.07-.038-.086-.027-.157-.065l-.4-.167-.038-.016-.086-.027-.437-.183c-.1-.022-.054-.027-.162-.065l-.939-.378-.011-.005-.286-.108a1.783,1.783,0,0,0-.281-.108l-.292-.1-.043-.016-.016-.005-.011-.005-.016-.005-.346-.113c-.081-.016-.135-.049-.2-.065l-.059-.016-.13-.038-.092-.038c-.043-.011-.076-.005-.119-.016-.07-.016-.016-.016-.092-.038-.1-.027-.183-.016-.281-.043-.054-.016-.011,0-.038-.016-.076-.043.016-.022-.065-.032l-.108-.032a4.072,4.072,0,0,0-.561-.059c-.1-.005.005.016-.081.011-.054-.005-.005-.016-.092-.016l-.346-.027c-.054.011.011.005-.043.022-.081.027-.038,0-.092.011l-.184.043a.956.956,0,0,0-.259.124,2.647,2.647,0,0,0-.221.167l-.524.227-.043-.167.038-.535.113-.416a3.3,3.3,0,0,1,.275-.572l.151-.211c.043-.054.076-.065.119-.113l.113-.124.005-.005.426-.3.011-.005.027-.016a1.046,1.046,0,0,1,.313-.092l.059-.011.043-.011a.432.432,0,0,1,.119,0l.092.005c.032-.011.016-.032.07-.027l1.069.076c.065.005.011.016.076.038a3.373,3.373,0,0,0,.421.038.855.855,0,0,0,.14.043c.065.011.135.011.2.016.151.016.022.022.14.049.054.011.135.005.194.011.119.022.032.027.14.049a2.528,2.528,0,0,1,.329.065,1.756,1.756,0,0,0,.313.081l.038.022a1.98,1.98,0,0,0,.265.07c.059.022.059.043.146.059l.081.011.648.232c.049.027,0,.011.076.032l.146.038.07.027.076.027.011.005H403c.13.043.319.146.437.173a.551.551,0,0,1,.151.054l.07.027.151.065.016.005.367.135.027.011.378.14.011.005.61.232c.076.016.059.032.119.059l.076.022.119.043.016.005.065.027.011.005.076.022.41.184c.038.011,0,0,.032.005l.124.043.038.016.065.027.848.34.011.005.027.011.016.005.038.016.011.005.011.005,1.042.437.146.065.059.027.146.065c.1.043.248.076.346.13l.335.151a5.208,5.208,0,0,1,.508.227l.227.108c.076.027.07.032.13.054.119.049.292.146.41.184s.049.022.119.065a1.784,1.784,0,0,0,.281.108l.308.151.016.005.475.205.076.032.265.13.054.032a.468.468,0,0,0,.135.054l.642.329.065.027a1.862,1.862,0,0,1,.286.157l.011.005.011.005.07.043.059.032.486.281a1.645,1.645,0,0,0,.173.119c.1.054.183.13.286.189l.054.038.178.113.092.086.713.54a1.584,1.584,0,0,1,.421.4l.005.011.038.054a1.245,1.245,0,0,1,.178.281l.081.248-.032.464c-.005.07-.016,0-.038.07-.032.1-.027.13-.07.248a2.6,2.6,0,0,1-.232.394l-.389.421a1.117,1.117,0,0,1-.211.178l-.453.345c-.065.054-.065.027-.124.07a1.142,1.142,0,0,1-.119.1l-.292.205c-.135.081-.248.221-.383.313l-.065.038-.27.227-.059.049a2.35,2.35,0,0,0-.383.389l-.016.022a.554.554,0,0,0-.162.238l-.005.016-.065.135c-.032.1-.027,0-.081.216-.022.081-.038.027-.049.162l-.016.5c.027.1.005.216.038.356l.011.038.011.092.049.227.005.011.005.016q2.478-.162,4.751-.453l-.41-.47a1.988,1.988,0,0,1-.108-.211l-.005-.011-.005-.011-.086-.243-.016-.07-.043-.194-.005-.011-.022-.216a1.038,1.038,0,0,1-.005-.13c-.005-.032-.022-.059-.005-.1l.038-.281a2.509,2.509,0,0,1,.027-.3c.022-.119.011.016.038-.124l.016-.065.054-.173.043-.1c.027-.07.011-.059.049-.119l.032-.038.318-.443.032-.043a5.688,5.688,0,0,1,.729-.6l.734-.448.1-.059.038-.032a.665.665,0,0,0,.151-.076l.146-.087.022-.011.454-.308a2.823,2.823,0,0,0,.5-.416l.092-.119a1.407,1.407,0,0,0,.157-.227l.054-.113.022-.049.054-.167a.793.793,0,0,0,.065-.34c0-.07-.016,0-.027-.081a1.2,1.2,0,0,0-.086-.378l-.081-.162c-.011-.027.005,0-.016-.032-.049-.081-.054-.135-.1-.184l-.426-.351-.07-.038-.119-.065-.059-.032c-.059-.027-.1-.032-.151-.059l-.032-.016a.639.639,0,0,0-.265-.092c-.076-.016-.081-.043-.14-.043l-1.015-.076c-.07-.005-.005.016-.1.027l-.34-.011c-.108,0-.032,0-.092.027l-.146.027-.038.005c-.054.005-.005-.005-.081-.011-.146-.011-.2.022-.345.011a.705.705,0,0,0-.232.016c-.232-.016-.135-.027-.232-.049a1.843,1.843,0,0,1-.292-.054l-.022-.011a1.057,1.057,0,0,1-.259-.162l-.049-.076-.049-.054-.027-.032a.618.618,0,0,1-.108-.259.429.429,0,0,1-.032-.173c.038-.475.049-.248.081-.389a1.222,1.222,0,0,0,.016-.14l.005-.07c.016-.081.022-.043.032-.1l.043-.157a.583.583,0,0,0-.157-.34l-.086-.065-.038-.032-.27-.167a.88.88,0,0,1-.076-.07c-.157-.157-.124-.14-.108-.356.005-.092.162-.167.216-.232-.14-.081-.3-.108-.448-.184-.313-.178-.194-.324-.14-.443l.016-.038.005-.016.027-.065a1.222,1.222,0,0,1,.173-.286l.124-.319a1.926,1.926,0,0,0-.221-.092c-.227-.086-.75.005-1.074-.14l-.173-.119a.425.425,0,0,1-.146-.264c-.011-.059-.043-.043-.038-.1.027-.356.005-.173.076-.324l.14-.3.011-.022.032-.043.032-.054.3-.389.027-.022.011-.011.011-.011.319-.362.038-.054.043-.049.005-.011.011-.011.092-.124a2.921,2.921,0,0,0,.211-.3l.032-.059a.551.551,0,0,0,.07-.248,1.25,1.25,0,0,0-.049-.416l-.3-.707-.005-.011.016-.95c.005-.065.016,0,.038-.086.049-.184.049-.3.108-.48l.1-.4a1.129,1.129,0,0,0,.092-.345c.027-.086.032-.022.043-.14a1.2,1.2,0,0,1,.07-.292c.038-.113.005-.011.016-.119,0-.076.016-.049.049-.113l.022-.108a.573.573,0,0,0,.043-.205c.022-.07.059-.1.07-.167a1.846,1.846,0,0,1,.1-.335l.3-.831.054-.113c.054-.1.1-.232.157-.324l.1-.157.005-.011.146-.216c.043-.076.1-.124.14-.189.059-.081.135-.129.194-.2l.205-.189.076-.07a2.791,2.791,0,0,0,.275-.2c.054-.049.1-.059.151-.1l.011-.005c.124-.108.335-.237.378-.275a.277.277,0,0,1,.1-.065l.184-.113c.054-.032.092-.1.146-.124l.027-.011a1.4,1.4,0,0,0,.184-.13l.561-.437c.065-.059.14-.081.281-.211l.027-.032.011-.005.162-.1a4.169,4.169,0,0,0,.372-.292.236.236,0,0,1,.092-.065,2.193,2.193,0,0,0,.259-.2c.065-.059.113-.076.184-.14a1.284,1.284,0,0,1,.265-.194c.092-.059.151-.14.248-.194l.016-.005.086-.07.184-.14c.049-.027.038-.011.086-.054l.394-.313.011-.011.011-.005a3.361,3.361,0,0,0,.281-.221c.049-.054.086-.054.146-.1.076-.049.13-.124.211-.167l.211-.157.011-.011.011-.005.831-.621c.054-.038.043-.049.081-.081l.616-.47c.254-.157.248-.211.41-.3.081-.049.14-.113.221-.167l.081-.059c.167-.146.275-.205.351-.27.157-.135.227-.151.281-.205a2.384,2.384,0,0,1,.265-.194c.059-.049.092-.119.184-.119v-.054c.076,0,.092-.027.135-.076l.426-.318.032-.022.1-.092a3.22,3.22,0,0,0,.286-.211c.059-.059.113-.065.184-.124.14-.119.211-.146.329-.254.076-.065.151-.092.227-.162.059-.049.043-.07.119-.076l.005-.054c.13,0,.184-.157.292-.2.07-.027.022.016.086-.038l.345-.275a1.759,1.759,0,0,1,.151-.1.987.987,0,0,1,.14-.113l.092-.065c.081-.07.124-.076.189-.13l.146-.1c.1-.043.178-.157.265-.216l.13-.081c.059-.054.1-.065.167-.119l.14-.108c.059-.049.1-.032.113-.119.1,0,.162-.1.232-.157.049-.038.076-.043.119-.076l.286-.248a20.938,20.938,0,0,0-3.407-1.274,1,1,0,0,1-.124.081l-.427.335a2.148,2.148,0,0,1-.232.167l-.653.513a1.876,1.876,0,0,1-.232.162l-.086.07-.011.011-.119.092c-.049.038-.065.043-.113.081a.879.879,0,0,1-.108.092.531.531,0,0,0-.119.07l-.1.086-.1.092-.065.038-.372.27a2.747,2.747,0,0,1-.248.178l-.459.372-.011.011c-.1.065-.194.151-.292.2-.081.043-.135.119-.211.167l-.14.092c-.1.1-.13.081-.205.146l-.108.092c-.086.076-.157.1-.227.162l-.027.027-.027.027a1.866,1.866,0,0,1-.167.119c-.151.13-.194.135-.254.189-.124.108-.243.157-.308.221s-.189.135-.318.248a1.757,1.757,0,0,1-.184.119l-.167.119c-.032.027-.049.065-.1.1s-.065.043-.113.081l-.221.173c-.065.043-.043,0-.108.065l-.335.254c-.054.043-.059.043-.113.081l-.659.491c-.119.07-.227.173-.346.243a.841.841,0,0,0-.108.086c-.065.059-.059.038-.119.076l-.275.211-.005.005-.167.119a.808.808,0,0,0-.108.092c-.119.1-.162.1-.254.173l-.3.232c-.065.054-.113.065-.178.124a5.842,5.842,0,0,1-.61.432,1.406,1.406,0,0,0-.194.162l-.011.011-.351.248a.891.891,0,0,1-.113.086l-.113.081c-.086.059-.189.157-.27.205l-.167.119c-.049.038-.07.027-.124.07l-.329.275-.718.853a3.608,3.608,0,0,0-.173.324l-.221.475-.016.043-.07.173-.005.011-.027.065-.049.14a2.25,2.25,0,0,0-.092.319c-.011.07-.032.076-.049.124l-.1.356c-.038.092-.043.2-.076.281-.054.14-.054.232-.1.351l-.011.043c-.027.092-.011.173-.043.259l-.022.054-.005.016-.054.167-.011.086c-.011.059-.011.022-.027.081l-.065.238a2.273,2.273,0,0,1-.1.432c-.049.151-.038.292-.076.432-.027.1-.049.005-.065.135-.005.065-.005.135-.011.2a1.508,1.508,0,0,0-.032.178l-.038.157a1.4,1.4,0,0,0-.038.378l-.086.4c-.005.378-.081.194-.113.583a3.022,3.022,0,0,1-.1.313l-.184.5-.032.065-.13.248-.07.135-.043.07-.243.356-.038.054-.3.345a2.087,2.087,0,0,1-.162.178c-.059.049-.049.059-.092.108-.1.119-.345.264-.426.362a1.938,1.938,0,0,1-.211.157l-.351.238a3.03,3.03,0,0,1-.745.351l-.016.005a1.749,1.749,0,0,1-.3.1l-.151.032-.1.011-.054.011c-.038.022-.032.032-.086.032-.032.005-.049,0-.086.005h-.13a3,3,0,0,1-.34.049c-.108-.005-.124.022-.238.016-.13-.005-.2.022-.34.011a.75.75,0,0,0-.238.016c-.211.022-.443-.065-.653-.043-.043.005-.059.027-.1.027-.076-.005-.027-.016-.086-.016l-.788-.049c-.07-.005,0-.016-.076-.038-.124-.038-1.047-.081-1.263-.1-.081-.005-.108-.043-.157-.049l-1.463-.108c-.07-.005,0,.016-.092.027a2.812,2.812,0,0,1-.372-.027c-.13-.005-.092.027-.216.022a1.6,1.6,0,0,0-.221-.005l-.205.032c-.049.011-.151.005-.205.011l-.205.043a1.561,1.561,0,0,0-.47.248.842.842,0,0,1-.135.108.63.63,0,0,0-.14.092,1.724,1.724,0,0,1-.356.27l-.032.016a.718.718,0,0,1-.216.065c.005-.1-.016-.07-.022-.167v-.27c-.005-.108-.049-.049-.038-.216a2.749,2.749,0,0,1,.049-.6,2.449,2.449,0,0,0,.022-.286c.005-.076.032-.086.054-.146l.108-.383.038-.092a2,2,0,0,1,.308-.513l.059-.07a.777.777,0,0,0,.119-.113.466.466,0,0,1,.13-.14,1.85,1.85,0,0,1,.626-.356l.054-.022a3.332,3.332,0,0,1,.453-.146l.286-.059a.655.655,0,0,0,.1-.005.406.406,0,0,1,.1-.016l.1-.005a1.4,1.4,0,0,0,.216-.005h.086c.065.016.065-.022.146-.016a.966.966,0,0,0,.281.011l.038-.011a3.051,3.051,0,0,1,.535.033l.146.005c.1.005.059.043.14.054.173.022.367.011.529.033l.227.022c.146.054.032.049.254.059l.788.059c.146.011.221.038.373.048.265.016.524.043.788.059.092.005.1-.011.178-.005l.394.027c.2.016.173-.038.319-.022.119.011.038.005.124-.022.054-.011.076.011.13.005s.011-.011.081-.016l.162-.022a.737.737,0,0,0,.227-.054l.216-.07.065-.027a.946.946,0,0,0,.227-.167.911.911,0,0,0,.146-.248,1.292,1.292,0,0,1,.07-.13.716.716,0,0,0,.054-.162l.065-.194.011-.038.081-.238c.011-.038.032-.151.038-.173l.038-.167.016-.043.016-.135c.022-.1.043-.005.049-.124a.877.877,0,0,1,.011-.119l.054-.286.005-.011c.016-.049.022-.005.032-.1l.005-.092c.011-.124.038-.059.043-.216a1.227,1.227,0,0,1,.065-.356c.038-.081.043.005.054-.146a1.813,1.813,0,0,1,.054-.367c.038-.113.038-.227.076-.34a2.4,2.4,0,0,0,.054-.362.773.773,0,0,0,.1-.319l.016-.1.027-.065.076-.34a1.638,1.638,0,0,1,.032-.173l.086-.324c.016-.059.011-.022.032-.081l.016-.081.065-.216a.457.457,0,0,0,.059-.238c.005-.065.032-.022.059-.108a3.47,3.47,0,0,1,.108-.378l.005-.011.259-.691.005-.011.205-.5.005-.016.022-.054c.043-.119.184-.351.205-.4a1.687,1.687,0,0,1,.319-.5l.005-.011.011-.011.011-.005.011-.022c.054-.092.113-.124.162-.205a.473.473,0,0,1,.1-.13c.076-.059.135-.167.216-.237l.324-.34.005-.011.011-.011.1-.081.011-.005.016-.016c.076-.065.13-.151.2-.216l.723-.615.011-.005.011-.011.049-.043a2.2,2.2,0,0,1,.335-.248l.238-.211c.032-.032-.005,0,.038-.032l.356-.265c.156-.086.308-.254.464-.329.07-.032.086-.092.151-.135a.739.739,0,0,0,.221-.151l.389-.27a.2.2,0,0,1,.081-.054l.6-.427.081-.065.34-.238a.277.277,0,0,1,.086-.059c.086-.038.135-.113.216-.151l.1-.065.005-.005c.119-.1.265-.173.372-.265l.146-.108.011-.005.022-.011.059-.049.022-.016.086-.054c.065-.038.113-.1.173-.13s.032-.005.092-.049l1.193-.864.022-.016.4-.286c.07-.054.07-.1.178-.1l.005-.054.054.005c.016-.076.005-.027.022-.054l.043-.032.005-.005.016-.005.022-.016c.1-.054.178-.146.275-.2l.162-.119.043-.032.032-.022.205-.146.043-.027c.151-.119.167-.108.243-.167.092-.076.113-.059.13-.14.076.005.065,0,.113-.038l.572-.448c.07-.059.108-.059.178-.119a1.293,1.293,0,0,1,.254-.189l.081-.065a1.133,1.133,0,0,1,.167-.113c.059-.043.108-.1.162-.14s.043-.016.092-.049c.086-.054.162-.146.243-.205l.027-.022a29.281,29.281,0,0,0-3.493-.205c-20.245,0-32.6,17.729-32.6,34.768,0,14.528,8.233,23.565,24.246,23.565,6.181,0,14.3-1.031,20.817-4.346l-1.139-11.9Zm-8.233-8.109c10.4-2.473,16.353-7.915,16.353-17.281a15.341,15.341,0,0,0-6.7-13.178l-.264.232a2.239,2.239,0,0,1-.275.2c-.059.049-.059.081-.13.124l-.281.216a1.66,1.66,0,0,1-.157.092l-.011.011-.005.005-.194.146-.07.054a1.448,1.448,0,0,0-.151.1c-.157.14-.356.216-.518.351l-.211.157c-.086.054.022-.027-.065.027l-.211.162-.022.016c-.156.13-.108.043-.205.13l-.615.486c-.1.081-.194.13-.286.211a.692.692,0,0,1-.14.108c-.113.059-.2.173-.308.243l-.011.011-.032.016-.707.535c-.113.092-.178.108-.189.173-.119,0-.275.211-.372.281a.772.772,0,0,0-.162.108,2.167,2.167,0,0,1-.227.162l-.1.081a.89.89,0,0,1-.178.14,2.45,2.45,0,0,0-.27.21l-.335.27-.011.005-.016.005-.221.167-.011.005-.556.421-.011.005-.324.248c-.059.049-.108.1-.173.151l-.561.427-.054.038c-.1.1-.205.146-.313.254a1.075,1.075,0,0,1-.194.124l-.086.076-.027.027-.059.049c-.135.086-.313.248-.372.286l-.367.264c-.076.054-.135.124-.205.173l-.081.043-.081.076-.329.243-.038.032-.189.135c-.076.07-.135.092-.232.173l-.049.038a1,1,0,0,1-.092.07l-.032.016-1.139.853c-.054.032-.016.005-.059.027-.065.038-.108.108-.173.151-.108.065-.205.162-.275.205l-.194.124c-.119.108-.238.184-.362.291l-.248.238a1.684,1.684,0,0,0-.167.173l-.124.13-.016.022-.135.151c-.043.049-.005-.005-.038.054l-.319.524-.027.065c-.032.059.005-.005-.027.043-.043.065-.059.157-.108.227s-.022.1-.07.189l-.005.011-.173.54c-.022.1-.022.027-.043.124l-.032.13c-.059.157-.081.319-.135.47l-.043.194c-.016.119-.043.108-.065.221-.011.059-.032.248-.049.292l-.038.135c-.016.119-.038.059-.043.124l-.027.41.049.167.432.669a1.6,1.6,0,0,1-.07.729l-.34.61-.049.076-.07.059-.016.016-.421.443a1.12,1.12,0,0,0-.232.394l-.016.054.038.119c.016.049.005.054.022.1a.4.4,0,0,0,.259.173l.534.038a.669.669,0,0,1,.275.108.4.4,0,0,1,.189.237c-.022.259-.032.151-.054.248l-.016.1a.689.689,0,0,0-.038.324l.005.016v.011l.135.2c.059.054.135.054.189.092a1.217,1.217,0,0,0,.394.076l.232.016c0,.07.027.108-.038.151a.542.542,0,0,1-.216.076l-.216.081c.119.211.243.173.313.5a.587.587,0,0,1,.005.1c-.027.383.016.238,0,.432a.8.8,0,0,0,.005.281c.1.416-.038.108.135.453a.826.826,0,0,0,.34.34l.086.043.362.14,1.177.086c.081.005-.005,0,.054-.016.108-.032.194.005.3-.022a.943.943,0,0,1,.3.005c.086.005.032-.022.157-.016a.72.72,0,0,0,.108,0l.221-.011a7.412,7.412,0,0,1,1.058.086c.065.027-.022.011.081.032l.1.016.07.022c.065.011.022-.011.076.022l.545.346.1.113.043.081.005.011a1.241,1.241,0,0,1,.189.572v.265c-.038.113-.022.286-.065.394-.022.059-.027.108-.049.173a.772.772,0,0,1-.07.151,1.515,1.515,0,0,1-.146.3c-.049.054-.005,0-.043.065a2.266,2.266,0,0,1-.513.588c-.049.022-.022,0-.07.038s-.076.07-.119.1l-.47.264-.065.043c-.146.1-.318.151-.47.248-.119.081-.3.151-.437.227l-.07.038c-.227.113-.281.162-.47.264l-.07.043-.259.162c-.059.038-.07.022-.13.081l-.275.265-.054.049-.205.34c-.027.065,0,.022-.032.081l-.124.318-.049.589.076.335a2.041,2.041,0,0,0,.216.518l.054.1c.065.081.14.162.211.238a.814.814,0,0,0,.113.124l.135.1.038.027.1.065c.049.043-.005.011.065.043l.059.032a1.527,1.527,0,0,0,.54.184c.124.016.1.043.178.049a2.35,2.35,0,0,0,.378-.005l.189-.016a.593.593,0,0,1,.1,0l.74-.211a.261.261,0,0,1,.178-.027c-.005.065-.005.038-.022.076l-.016.027Zm-54.732,23.209,3.887-20.818c2.062-10.981,6.98-20.359,17.5-20.359a19.508,19.508,0,0,1,2.629.113l3.207-16.013a28.15,28.15,0,0,0-3.088-.113c-7.666,0-13.956,5.258-17.848,12.692h-.34c.34-3.887.686-7.661,1.026-11.434h-14.3c-.572,4.8-1.258,14.182-2.856,22.648l-6.295,33.283Zm-20.067,0a135.037,135.037,0,0,1,2.17-25.163l5.949-29.283a66.756,66.756,0,0,0-18.528-2.743c-27.566,0-40.037,20.132-40.037,39,0,11.667,6.867,19.446,16.93,19.446,6.522,0,13.61-3.088,18.76-12.352h.34c-.34,4-.686,7.774-.8,11.094Zm-13.043-31.34c-2.516,13.724-8.579,19.327-13.5,19.327-4.573,0-6.748-3.774-6.748-9.264,0-10.409,7.78-23.447,18.415-23.447a25.2,25.2,0,0,1,4.465.459l-2.635,12.924ZM297.824,272.79a28.243,28.243,0,0,1-11.1,2.284c-6.176,0-10.976-3.887-10.976-11.553,0-10.522,7.2-20.472,18.987-20.472a18.954,18.954,0,0,1,7.547,1.371l4-12.579a30.558,30.558,0,0,0-11.321-1.944c-21.276,0-36.49,15.554-36.49,35.453,0,14.528,9.723,22.88,23.565,22.88,6.63,0,12.352-1.145,15.9-2.861l-.113-12.579Zm-46.494,14.3,10.635-55.931H245.494l-10.635,55.931Zm4.459-62.911c5.264,0,9.723-3.428,9.723-9.264,0-4.918-3.428-8.12-8.233-8.12a9.366,9.366,0,0,0-9.5,9.378,7.625,7.625,0,0,0,8.006,8.006Zm-27.274-18.3-4.8,25.282a23.18,23.18,0,0,0-7.7-1.258c-21.125,0-35.194,17.843-35.194,37.284,0,13.616,7.893,21.163,17.384,21.163,6.505,0,13.346-2.861,18.264-10.3h.232l-.8,9.037h15.122a149.779,149.779,0,0,1,2.629-21.735l11.321-59.478Zm-10.106,53.534c-2.17,10.635-8.006,15.667-12.676,15.667-4.8,0-7.758-3.774-7.758-10.522,0-10.749,6.959-22.189,16.779-22.189a11.016,11.016,0,0,1,6.516,1.944l-2.861,15.1Zm-42.677,12.579a35.14,35.14,0,0,1-15.672,3.547c-4.8,0-8.573-1.485-10.749-4.346a11.038,11.038,0,0,1-1.717-5.717c22.421.567,36.258-4.578,36.258-18.874,0-10.409-8.12-16.7-19.441-16.7-20.251,0-32.6,17.729-32.6,34.768,0,14.528,8.238,23.565,24.251,23.565,6.176,0,14.3-1.031,20.817-4.346l-1.145-11.9Zm-7.321-25.277c0,5.032-6.4,6.862-19.214,6.748,1.145-5.258,5.49-11.553,13.151-11.553,3.774,0,6.063,1.944,6.063,4.8Z" transform="translate(0 0)" fill="#000001"/>
  </g>
</svg>
